<svg width="27" height="24" viewBox="0 0 27 24" fill="none" xmlns="http://www.w3.org/2000/svg">
<rect width="27" height="24" rx="2" fill="#F9F9F9"/>
<path d="M21.3961 6.74648H5.6039C4.71558 6.74648 4 6.1338 4 5.37324C4 4.61268 4.71558 4 5.6039 4H21.3961C22.2844 4 23 4.61268 23 5.37324C23 6.1338 22.2844 6.74648 21.3961 6.74648ZM23 11.5C23 10.7394 22.2844 10.1268 21.3961 10.1268H5.6039C4.71558 10.1268 4 10.7394 4 11.5C4 12.2606 4.71558 12.8732 5.6039 12.8732H21.3961C22.2844 12.8732 23 12.2606 23 11.5ZM23 17.6268C23 16.8662 22.2844 16.2535 21.3961 16.2535H5.6039C4.71558 16.2535 4 16.8662 4 17.6268C4 18.3873 4.71558 19 5.6039 19H21.3961C22.2844 19 23 18.3873 23 17.6268Z" fill="#F5B60D"/>
</svg>
