<svg width="36" height="38" viewBox="0 0 36 38" fill="none" xmlns="http://www.w3.org/2000/svg">
<path d="M28.5417 4.21417V1.8125C28.5417 1.44783 28.3968 1.09809 28.1389 0.840228C27.8811 0.582365 27.5313 0.4375 27.1667 0.4375C26.802 0.4375 26.4523 0.582365 26.1944 0.840228C25.9365 1.09809 25.7917 1.44783 25.7917 1.8125V4.10417H10.2083V1.8125C10.2083 1.44783 10.0635 1.09809 9.80561 0.840228C9.54774 0.582365 9.19801 0.4375 8.83333 0.4375C8.46866 0.4375 8.11892 0.582365 7.86106 0.840228C7.6032 1.09809 7.45833 1.44783 7.45833 1.8125V4.21417C5.41477 4.54469 3.55524 5.59092 2.2119 7.16599C0.868559 8.74105 0.128887 10.7424 0.125 12.8125V28.8542C0.125 29.9978 0.350248 31.1302 0.787883 32.1867C1.22552 33.2432 1.86697 34.2032 2.67561 35.0119C4.30874 36.645 6.52374 37.5625 8.83333 37.5625H27.1667C28.3103 37.5625 29.4427 37.3373 30.4992 36.8996C31.5557 36.462 32.5157 35.8205 33.3244 35.0119C34.133 34.2032 34.7745 33.2432 35.2121 32.1867C35.6498 31.1302 35.875 29.9978 35.875 28.8542V12.8125C35.8711 10.7424 35.1314 8.74105 33.7881 7.16599C32.4448 5.59092 30.5852 4.54469 28.5417 4.21417ZM24.4717 21.8142L18.2383 28.0475C18.0017 28.2827 17.7215 28.4695 17.4133 28.5975C17.1026 28.7381 16.7643 28.8071 16.4233 28.7992C16.0883 28.8068 15.756 28.7378 15.4517 28.5975C15.1346 28.4763 14.8471 28.2888 14.6083 28.0475L11.5283 24.9492C11.3932 24.8233 11.2849 24.6715 11.2097 24.5028C11.1346 24.3342 11.0942 24.1521 11.0909 23.9675C11.0877 23.7828 11.1216 23.5994 11.1908 23.4282C11.2599 23.257 11.3629 23.1015 11.4934 22.9709C11.624 22.8404 11.7795 22.7374 11.9507 22.6683C12.1219 22.5991 12.3053 22.5652 12.49 22.5684C12.6746 22.5717 12.8567 22.6121 13.0253 22.6872C13.194 22.7624 13.3458 22.8707 13.4717 23.0058L16.4417 25.9758L22.5283 19.8708C22.789 19.628 23.1337 19.4957 23.49 19.502C23.8462 19.5083 24.186 19.6526 24.438 19.9045C24.6899 20.1565 24.8342 20.4963 24.8405 20.8525C24.8468 21.2088 24.7145 21.5535 24.4717 21.8142ZM33.125 13.2708H2.875V12.8125C2.8768 11.4743 3.33039 10.176 4.16226 9.12785C4.99413 8.07969 6.15555 7.34313 7.45833 7.0375V9.14583C7.45833 9.51051 7.6032 9.86024 7.86106 10.1181C8.11892 10.376 8.46866 10.5208 8.83333 10.5208C9.19801 10.5208 9.54774 10.376 9.80561 10.1181C10.0635 9.86024 10.2083 9.51051 10.2083 9.14583V6.85417H25.7917V9.14583C25.7917 9.51051 25.9365 9.86024 26.1944 10.1181C26.4523 10.376 26.802 10.5208 27.1667 10.5208C27.5313 10.5208 27.8811 10.376 28.1389 10.1181C28.3968 9.86024 28.5417 9.51051 28.5417 9.14583V7.0375C29.8445 7.34313 31.0059 8.07969 31.8377 9.12785C32.6696 10.176 33.1232 11.4743 33.125 12.8125V13.2708Z" fill="#F9F9F9"/>
</svg>
