<svg width="39" height="39" viewBox="0 0 39 39" fill="none" xmlns="http://www.w3.org/2000/svg">
<path fill-rule="evenodd" clip-rule="evenodd" d="M3.495 3.495C0.75 6.24375 0.75 10.6612 0.75 19.5C0.75 28.3388 0.75 32.7581 3.495 35.5031C6.24375 38.25 10.6612 38.25 19.5 38.25C28.3388 38.25 32.7581 38.25 35.5031 35.5031C38.25 32.76 38.25 28.3388 38.25 19.5C38.25 10.6612 38.25 6.24187 35.5031 3.495C32.76 0.75 28.3388 0.75 19.5 0.75C10.6612 0.75 6.24187 0.75 3.495 3.495ZM22.7812 15.75C22.7812 16.5263 23.4112 17.1562 24.1875 17.1562H25.4812L21.7069 20.9306C21.6633 20.9743 21.6116 21.0089 21.5547 21.0325C21.4977 21.0562 21.4367 21.0683 21.375 21.0683C21.3133 21.0683 21.2523 21.0562 21.1953 21.0325C21.1384 21.0089 21.0867 20.9743 21.0431 20.9306L18.0694 17.9569C17.4541 17.342 16.6198 16.9966 15.75 16.9966C14.8802 16.9966 14.0459 17.342 13.4306 17.9569L9.13125 22.2563C8.99309 22.385 8.88227 22.5402 8.80541 22.7127C8.72855 22.8852 8.68722 23.0715 8.68389 23.2603C8.68056 23.4491 8.71529 23.6366 8.78602 23.8117C8.85675 23.9868 8.96202 24.1459 9.09555 24.2794C9.22909 24.413 9.38815 24.5183 9.56325 24.589C9.73836 24.6597 9.92591 24.6944 10.1147 24.6911C10.3035 24.6878 10.4898 24.6464 10.6623 24.5696C10.8348 24.4927 10.99 24.3819 11.1188 24.2437L15.4181 19.9444C15.4617 19.9007 15.5134 19.8661 15.5703 19.8425C15.6273 19.8188 15.6883 19.8067 15.75 19.8067C15.8117 19.8067 15.8727 19.8188 15.9297 19.8425C15.9866 19.8661 16.0383 19.9007 16.0819 19.9444L19.0556 22.9181C19.6709 23.533 20.5052 23.8784 21.375 23.8784C22.2448 23.8784 23.0791 23.533 23.6944 22.9181L27.4688 19.1456V20.4375C27.4688 20.8105 27.6169 21.1681 27.8806 21.4319C28.1444 21.6956 28.502 21.8438 28.875 21.8438C29.248 21.8438 29.6056 21.6956 29.8694 21.4319C30.1331 21.1681 30.2812 20.8105 30.2812 20.4375V15.75C30.2812 15.377 30.1331 15.0194 29.8694 14.7556C29.6056 14.4919 29.248 14.3438 28.875 14.3438H24.1875C23.8145 14.3438 23.4569 14.4919 23.1931 14.7556C22.9294 15.0194 22.7812 15.377 22.7812 15.75Z" fill="#F9F9F9"/>
</svg>
