<svg width="43" height="43" viewBox="0 0 43 43" fill="none" xmlns="http://www.w3.org/2000/svg">
<path fill-rule="evenodd" clip-rule="evenodd" d="M23.8099 41.4495L24.9616 39.503C25.8541 37.9943 26.3004 37.2377 27.0186 36.8212C27.7369 36.4026 28.64 36.3877 30.4462 36.3559C33.1152 36.3112 34.7876 36.1476 36.1901 35.5654C37.4792 35.0314 38.6505 34.2488 39.6372 33.2622C40.6238 32.2755 41.4064 31.1042 41.9404 29.8151C42.75 27.8644 42.75 25.3888 42.75 20.4375V18.3125C42.75 11.3574 42.75 7.87875 41.1839 5.3245C40.3083 3.89479 39.1068 2.69258 37.6776 1.81612C35.1213 0.25 31.6426 0.25 24.6875 0.25H18.3125C11.3574 0.25 7.87875 0.25 5.3245 1.81612C3.89479 2.69171 2.69258 3.8932 1.81612 5.32238C0.25 7.87875 0.25 11.3595 0.25 18.3125V20.4375C0.25 25.3888 0.25 27.8644 1.0575 29.8151C1.5917 31.1044 2.37467 32.2758 3.36167 33.2625C4.34868 34.2491 5.52039 35.0317 6.80987 35.5654C8.21237 36.1476 9.88475 36.3091 12.5538 36.3559C14.36 36.3877 15.2631 36.4026 15.9814 36.8212C16.6975 37.2377 17.1459 37.9921 18.0384 39.503L19.1901 41.4495C20.2165 43.1835 22.7814 43.1835 23.8099 41.4495ZM11.9375 16.6444C11.9375 20.3674 16.5339 24.3263 19.3538 26.4045C20.3185 27.1164 20.8009 27.4713 21.5 27.4713C22.1991 27.4713 22.6815 27.1164 23.6462 26.4045C26.4661 24.3263 31.0625 20.3695 31.0625 16.6444C31.0625 10.9558 25.8031 8.83075 21.5 13.2253C17.1969 8.83075 11.9375 10.9558 11.9375 16.6444Z" fill="#F9F9F9"/>
</svg>
