<svg width="46" height="44" viewBox="0 0 46 44" fill="none" xmlns="http://www.w3.org/2000/svg">
<path d="M23.0068 0L18.0565 10.0309L6.9869 11.6392L14.9968 19.447L13.106 30.4718L23.0068 25.2666L32.9076 30.4718L31.0168 19.447L39.0267 11.6393L27.9574 10.031L23.0068 0ZM8.59828 26.8788L5.9413 32.2627L0 33.1258L4.29914 37.3167L3.28432 43.2338L8.59828 40.44L13.9122 43.2337L12.8974 37.3166L17.1966 33.1258L11.2553 32.2627L8.59828 26.8788ZM37.2858 26.8788L34.6288 32.2627L28.6875 33.1258L32.9866 37.3167L31.9718 43.2338L37.2858 40.44L42.5997 43.2337L41.5849 37.3166L45.8841 33.1258L39.9428 32.2627L37.2858 26.8788Z" fill="#F9F9F9"/>
</svg>
